<?xml version="1.0" encoding="UTF-8" standalone="no"?>
<svg width="558px" height="558px" viewBox="0 0 558 558" version="1.1" xmlns="http://www.w3.org/2000/svg" xmlns:xlink="http://www.w3.org/1999/xlink" xmlns:sketch="http://www.bohemiancoding.com/sketch/ns">
    <!-- Generator: Sketch 3.3.3 (12081) - http://www.bohemiancoding.com/sketch -->
    <title>opug</title>
    <desc>Created with Sketch.</desc>
    <defs></defs>
    <g id="Page-1" stroke="none" stroke-width="1" fill="none" fill-rule="evenodd" sketch:type="MSPage">
        <g id="logo" sketch:type="MSLayerGroup" transform="translate(-11.000000, 0.000000)" fill="#000000">
            <g id="circle" transform="translate(0.000000, 30.000000)" sketch:type="MSShapeGroup">
                <path d="M300.5,475 C431.667628,475 538,368.667628 538,237.5 C538,106.332372 431.667628,0 300.5,0 C169.332372,0 63,106.332372 63,237.5 C63,368.667628 169.332372,475 300.5,475 Z M300.01332,400.05123 C390.056671,400.05123 463.05123,327.056671 463.05123,237.01332 C463.05123,146.969968 390.056671,73.9754098 300.01332,73.9754098 C209.969968,73.9754098 136.97541,146.969968 136.97541,237.01332 C136.97541,327.056671 209.969968,400.05123 300.01332,400.05123 Z" id="Oval-1"></path>
            </g>
            <g id="controller" transform="translate(171.000000, 205.000000)" sketch:type="MSShapeGroup">
                <path d="M55,54.5 L55,33.9998408 C55,31.7838823 56.7936345,30 59.0061948,30 L69.9938052,30 C72.2125261,30 74,31.7907897 74,33.9998408 L74,54.5 L94.5001592,54.5 C96.7161177,54.5 98.5,56.2936345 98.5,58.5061948 L98.5,69.4938052 C98.5,71.7125261 96.7092103,73.5 94.5001592,73.5 L74,73.5 L74,94.0001592 C74,96.2161177 72.2063655,98 69.9938052,98 L59.0061948,98 C56.7874739,98 55,96.2092103 55,94.0001592 L55,73.5 L34.4998408,73.5 C32.2838823,73.5 30.5,71.7063655 30.5,69.4938052 L30.5,58.5061948 C30.5,56.2874739 32.2907897,54.5 34.4998408,54.5 L55,54.5 L55,54.5 Z M62.2124978,1 C0.587166976,0.999999977 1.27865939,55.2036554 1.27865939,55.2036554 C0.89675867,59.5947929 0.775115414,66.7362204 1.26740972,71.1139367 C1.26740972,71.1139367 0.587166956,125.999992 62.2124966,125.999995 C98.6620717,125.999997 130.672224,125.999998 191.503329,125.999995 C252.334434,125.999992 251.662954,71.1139367 251.662954,71.1139367 C252.0338,66.7180685 252.146078,59.5782486 251.649614,55.1878293 C251.649614,55.1878293 252.334434,0.999999955 191.503329,0.999999977 C130.672224,1 123.837829,1.00000002 62.2124978,1 Z M162.5,73 C168.851275,73 174,67.8512746 174,61.5 C174,55.1487254 168.851275,50 162.5,50 C156.148725,50 151,55.1487254 151,61.5 C151,67.8512746 156.148725,73 162.5,73 Z M185.5,50 C191.851275,50 197,44.8512746 197,38.5 C197,32.1487254 191.851275,27 185.5,27 C179.148725,27 174,32.1487254 174,38.5 C174,44.8512746 179.148725,50 185.5,50 Z M208.5,73 C214.851275,73 220,67.8512746 220,61.5 C220,55.1487254 214.851275,50 208.5,50 C202.148725,50 197,55.1487254 197,61.5 C197,67.8512746 202.148725,73 208.5,73 Z M185.5,96 C191.851275,96 197,90.8512746 197,84.5 C197,78.1487254 191.851275,73 185.5,73 C179.148725,73 174,78.1487254 174,84.5 C174,90.8512746 179.148725,96 185.5,96 Z" id="Rectangle-1"></path>
            </g>
        </g>
    </g>
</svg>