<?xml version="1.0" encoding="UTF-8" standalone="no"?>
<svg width="252px" height="125px" viewBox="0 0 252 125" version="1.1" xmlns="http://www.w3.org/2000/svg"
     xmlns:sketch="http://www.bohemiancoding.com/sketch/ns"><!-- Generator: Sketch 3.1 (8751) - http://www.bohemiancoding.com/sketch -->
    <title>controller</title>
    <desc>Created with Sketch.</desc>
    <defs></defs>
    <g id="Page-1" stroke="none" stroke-width="1" fill="none" fill-rule="evenodd" sketch:type="MSPage">
        <g id="logo" sketch:type="MSLayerGroup" transform="translate(-170.000000, -176.000000)" fill="#000000">
            <g id="controller" transform="translate(171.000000, 176.000000)" sketch:type="MSShapeGroup">
                <path d="M54,53.5 L54,32.9998408 C54,30.7838823 55.7936345,29 58.0061948,29 L68.9938052,29 C71.2125261,29 73,30.7907897 73,32.9998408 L73,53.5 L93.5001592,53.5 C95.7161177,53.5 97.5,55.2936345 97.5,57.5061948 L97.5,68.4938052 C97.5,70.7125261 95.7092103,72.5 93.5001592,72.5 L73,72.5 L73,93.0001592 C73,95.2161177 71.2063655,97 68.9938052,97 L58.0061948,97 C55.7874739,97 54,95.2092103 54,93.0001592 L54,72.5 L33.4998408,72.5 C31.2838823,72.5 29.5,70.7063655 29.5,68.4938052 L29.5,57.5061948 C29.5,55.2874739 31.2907897,53.5 33.4998408,53.5 L54,53.5 L54,53.5 Z M61.2124978,7.10542736e-15 C-0.412833024,-2.26042687e-08 0.278659392,54.2036554 0.278659392,54.2036554 C-0.10324133,58.5947929 -0.224884586,65.7362204 0.267409721,70.1139367 C0.267409721,70.1139367 -0.412833044,124.999992 61.2124966,124.999995 C97.6620717,124.999997 129.672224,124.999998 190.503329,124.999995 C251.334434,124.999992 250.662954,70.1139367 250.662954,70.1139367 C251.0338,65.7180685 251.146078,58.5782486 250.649614,54.1878293 C250.649614,54.1878293 251.334434,-4.54423006e-08 190.503329,-2.26042687e-08 C129.672224,2.33763285e-10 122.837829,2.26042829e-08 61.2124978,7.10542736e-15 Z M161.5,72 C167.851275,72 173,66.8512746 173,60.5 C173,54.1487254 167.851275,49 161.5,49 C155.148725,49 150,54.1487254 150,60.5 C150,66.8512746 155.148725,72 161.5,72 Z M184.5,49 C190.851275,49 196,43.8512746 196,37.5 C196,31.1487254 190.851275,26 184.5,26 C178.148725,26 173,31.1487254 173,37.5 C173,43.8512746 178.148725,49 184.5,49 Z M207.5,72 C213.851275,72 219,66.8512746 219,60.5 C219,54.1487254 213.851275,49 207.5,49 C201.148725,49 196,54.1487254 196,60.5 C196,66.8512746 201.148725,72 207.5,72 Z M184.5,95 C190.851275,95 196,89.8512746 196,83.5 C196,77.1487254 190.851275,72 184.5,72 C178.148725,72 173,77.1487254 173,83.5 C173,89.8512746 178.148725,95 184.5,95 Z"
                      id="Rectangle-1"></path>
            </g>
        </g>
    </g>
</svg>