<?xml version="1.0" encoding="UTF-8" standalone="no"?>
<svg width="400px" height="400px" viewBox="0 0 400 400" version="1.1" xmlns="http://www.w3.org/2000/svg" xmlns:xlink="http://www.w3.org/1999/xlink" xmlns:sketch="http://www.bohemiancoding.com/sketch/ns">
    <!-- Generator: Sketch 3.3.3 (12081) - http://www.bohemiancoding.com/sketch -->
    <title>logo</title>
    <desc>Created with Sketch.</desc>
    <defs></defs>
    <g id="Page-1" stroke="none" stroke-width="1" fill="none" fill-rule="evenodd" sketch:type="MSPage">
        <g id="logo" sketch:type="MSLayerGroup" fill="#009E91">
            <g id="circle" sketch:type="MSShapeGroup">
                <path d="M200,400 C310.45695,400 400,310.45695 400,200 C400,89.54305 310.45695,0 200,0 C89.54305,0 0,89.54305 0,200 C0,310.45695 89.54305,400 200,400 Z M199.590164,336.885246 C275.416144,336.885246 336.885246,275.416144 336.885246,199.590164 C336.885246,123.764184 275.416144,62.295082 199.590164,62.295082 C123.764184,62.295082 62.295082,123.764184 62.295082,199.590164 C62.295082,275.416144 123.764184,336.885246 199.590164,336.885246 Z" id="Oval-1"></path>
            </g>
            <g id="controller" transform="translate(100.000000, 150.000000)" sketch:type="MSShapeGroup">
                <path d="M43.6507937,43.2539683 L43.6507937,27.7998552 C43.6507937,25.6051442 45.442283,23.8095238 47.6521971,23.8095238 L54.7287553,23.8095238 C56.9411419,23.8095238 58.7301587,25.596056 58.7301587,27.7998552 L58.7301587,43.2539683 L74.1842718,43.2539683 C76.3789828,43.2539683 78.1746032,45.0454576 78.1746032,47.2553717 L78.1746032,54.3319299 C78.1746032,56.5443165 76.388071,58.3333333 74.1842718,58.3333333 L58.7301587,58.3333333 L58.7301587,73.7874464 C58.7301587,75.9821574 56.9386694,77.7777778 54.7287553,77.7777778 L47.6521971,77.7777778 C45.4398105,77.7777778 43.6507937,75.9912456 43.6507937,73.7874464 L43.6507937,58.3333333 L28.1966806,58.3333333 C26.0019696,58.3333333 24.2063492,56.541844 24.2063492,54.3319299 L24.2063492,47.2553717 C24.2063492,45.0429851 25.9928814,43.2539683 28.1966806,43.2539683 L43.6507937,43.2539683 L43.6507937,43.2539683 Z M49.3749983,0.793650794 C0.466005537,0.793650776 1.27122085,42.1696811 1.27122085,42.1696811 C0.826512709,46.5619733 0.68006442,53.6896702 1.25739111,58.0809982 C1.25739111,58.0809982 0.466005521,99.9999939 49.3749973,99.9999962 C78.3032315,99.9999975 103.708114,99.9999984 151.986769,99.9999962 C200.265424,99.9999939 199.484235,58.0809982 199.484235,58.0809982 C199.915672,53.6857126 200.050313,46.5551673 199.470583,42.1696811 C199.470583,42.1696811 200.265424,0.793650758 151.986769,0.793650776 C103.708114,0.793650794 98.283991,0.793650812 49.3749983,0.793650794 Z M128.968254,57.9365079 C134.008948,57.9365079 138.095238,53.850218 138.095238,48.8095238 C138.095238,43.7688297 134.008948,39.6825397 128.968254,39.6825397 C123.92756,39.6825397 119.84127,43.7688297 119.84127,48.8095238 C119.84127,53.850218 123.92756,57.9365079 128.968254,57.9365079 Z M147.222222,39.6825397 C152.262916,39.6825397 156.349206,35.5962497 156.349206,30.5555556 C156.349206,25.5148614 152.262916,21.4285714 147.222222,21.4285714 C142.181528,21.4285714 138.095238,25.5148614 138.095238,30.5555556 C138.095238,35.5962497 142.181528,39.6825397 147.222222,39.6825397 Z M165.47619,57.9365079 C170.516885,57.9365079 174.603175,53.850218 174.603175,48.8095238 C174.603175,43.7688297 170.516885,39.6825397 165.47619,39.6825397 C160.435496,39.6825397 156.349206,43.7688297 156.349206,48.8095238 C156.349206,53.850218 160.435496,57.9365079 165.47619,57.9365079 Z M147.222222,76.1904762 C152.262916,76.1904762 156.349206,72.1041862 156.349206,67.0634921 C156.349206,62.0227979 152.262916,57.9365079 147.222222,57.9365079 C142.181528,57.9365079 138.095238,62.0227979 138.095238,67.0634921 C138.095238,72.1041862 142.181528,76.1904762 147.222222,76.1904762 Z" id="Rectangle-1"></path>
            </g>
        </g>
    </g>
</svg>